<?xml version="1.0" encoding="utf-8"?><svg focusable="false" aria-hidden="true" data-name="Equal Housing Opportunity Logo" xmlns="http://www.w3.org/2000/svg" viewBox="0 0 160 160" width="160" height="160"><path fill="#101010" d="M6.13 70.14V50l5.75-3.86c3.58-2.41 7.16-4.84 10.75-7.25s7-4.69 10.56-7 7.16-4.89 10.75-7.26 7-4.69 10.56-7 6.91-4.67 10.37-7L79.94.51a1.86 1.86 0 0 1 2 0l3.17 2.13c2.52 1.71 5 3.43 7.57 5.13l14.63 9.81 7.63 5.15L130 32.86q7.23 4.86 14.45 9.75c3.39 2.28 6.79 4.53 10.17 6.81a9.77 9.77 0 0 1 1.1 1v19.85H146v59.42h-.93q-40.54-.07-81.09-.13H17.07a9 9 0 0 1-1.16-.15V70.14zm123.74 39.14V59.45a.89.89 0 0 0-.49-.81l-12.23-8.16L92.49 34q-5.63-3.76-11.25-7.54a.69.69 0 0 0-.92 0c-1.44 1-2.89 2-4.35 2.94L66 36.12l-9.69 6.49-9.74 6.52c-4.61 3.09-9.21 6.21-13.83 9.28a1 1 0 0 0-.52 1v49.86zM70 146.5c2.07 0 4.1-.05 6.13 0a6.41 6.41 0 0 1 2.51.56 3.16 3.16 0 0 1 1.32 1.49 3.47 3.47 0 0 1-.39 3.8 4.1 4.1 0 0 1-2.78 1.32c2.12 1.46 3.05 3.79 4.5 5.91h-1.94c-.13 0-.28-.17-.36-.29-.8-1.23-1.57-2.48-2.38-3.7a3.37 3.37 0 0 0-3.48-1.83 10.25 10.25 0 0 1-1.45 0v5.79H70zm1.7 5.69h5a2 2 0 0 0 0-4.05c-1.64-.16-3.31 0-5 0zm45.68 7.36h-.11a2.16 2.16 0 0 1-2.51-1.24c-1.8-2.87-3.71-5.67-5.58-8.49a4.19 4.19 0 0 0-.34-.39v10.08h-1.56v-13a13.14 13.14 0 0 1 1.37 0 .79.79 0 0 1 .47.34q2.43 3.55 4.85 7.12l1.87 2.75v-10.2h1.54zm-94.46.3a5.12 5.12 0 0 1-4.38-1.85 7.43 7.43 0 0 1-1.73-6 7.35 7.35 0 0 1 1.51-3.65 4.93 4.93 0 0 1 2.48-1.66 7.41 7.41 0 0 1 2.42-.38 5.82 5.82 0 0 1 4.28 1.88 6.29 6.29 0 0 1 1.67 4.17 8.72 8.72 0 0 1-.73 4.19 5.66 5.66 0 0 1-3.29 2.84 11.65 11.65 0 0 1-2.23.46zm.23-1.59c1.24.34 2.12-.53 3-1.31a2.91 2.91 0 0 0 .72-1.06 7.56 7.56 0 0 0 .42-4.34 4.43 4.43 0 0 0-3.48-3.6 3.8 3.8 0 0 0-3.08.51 3.61 3.61 0 0 0-1.89 2.34 21.72 21.72 0 0 0-.28 3c-.09 2.26 1.96 4.83 4.59 4.46zm38.16 1.44a4.85 4.85 0 0 1-4.38-1.7 6.69 6.69 0 0 1-1.69-4 6.9 6.9 0 0 1 1.21-5.27 6.52 6.52 0 0 1 2.11-1.73 6 6 0 0 1 4.61-.37 5.76 5.76 0 0 1 4.12 4.18 8 8 0 0 1-.27 5.39 5.18 5.18 0 0 1-2.42 2.8 5.09 5.09 0 0 1-3.29.7zM57 153.08a4.88 4.88 0 0 0 1.13 3.92 4.23 4.23 0 0 0 4 1.31 2.71 2.71 0 0 0 1-.21 4.5 4.5 0 0 0 2.29-2.52 9.06 9.06 0 0 0 .33-1.57 6.8 6.8 0 0 0-.37-3.4 4.56 4.56 0 0 0-3.55-2.73 4.49 4.49 0 0 0-4.3 2.21 5.77 5.77 0 0 0-.53 2.99zm-11.7 1.23v5.24h-1.67v-13h5.87a5.13 5.13 0 0 1 1.92.48 3.49 3.49 0 0 1 2 4 3.39 3.39 0 0 1-1.56 2.6 6.28 6.28 0 0 1-2.52.68c-1.34.08-2.65 0-4.04 0zm0-1.59h4.42a2.39 2.39 0 0 0 1.87-1.54 6 6 0 0 0 0-1.05c0-1-.35-1.6-1.29-1.73-1.65-.24-3.33-.28-5-.41zm-12.17 1.59v5.24h-1.68v-13h3.35s2.52.14 3.78.26a3.68 3.68 0 0 1 2.8 3.23 4.47 4.47 0 0 1-1.38 3.4 2 2 0 0 1-.91.39 17.7 17.7 0 0 1-2.53.46c-1.12.08-2.24.02-3.43.02zm0-1.59h3.64a3.47 3.47 0 0 0 1.87-.45 1.76 1.76 0 0 0 1-1.78 2 2 0 0 0-1-2c-1.77-.85-3.64-.27-5.49-.47zm69.48-6.19h1.68v.57c0 2.6.05 5.2 0 7.8a5.41 5.41 0 0 1-.77 3.09 4 4 0 0 1-3.26 1.72 17 17 0 0 1-2.94-.13 3.38 3.38 0 0 1-2.9-2.93 20.8 20.8 0 0 1-.29-4v-6.07h1.72v8.55a2.93 2.93 0 0 0 1.69 2.87 4.51 4.51 0 0 0 2 .27 2.69 2.69 0 0 0 2.77-1.73 4.49 4.49 0 0 0 .26-1.39v-7.87zm-66-3.66l1.93 1-.49 1a7.42 7.42 0 0 1-1.51-.75 1.75 1.75 0 0 0-1.89-.24c-2.79.91-5.82-.23-6.69-3.19a7.19 7.19 0 0 1 .39-5.34 4.79 4.79 0 0 1 3.38-2.58 5.25 5.25 0 0 1 4.92 1.36 5.17 5.17 0 0 1 1.59 3.33 6.34 6.34 0 0 1-1 4.66c-.24.24-.41.49-.63.75zm-1-.82a6.64 6.64 0 0 0 .79-1.56 11.83 11.83 0 0 0 .27-2.84 3.71 3.71 0 0 0-2.26-3.42 3.8 3.8 0 0 0-4.28.92 6.12 6.12 0 0 0-.7 5.34c.51 2 3.44 3.09 4.94 2.06L33 142a1.88 1.88 0 0 0 .16-.38c.11-.66.52-.67 1-.43s.89.54 1.46.86zm97.52 1.95a3 3 0 0 0-.44 0 1.61 1.61 0 0 1-1.8-1c-1.52-2.46-3.15-4.85-4.73-7.27-.09-.14-.2-.26-.39-.51V144h-1.41v-11.26a7.18 7.18 0 0 1 1.09 0 1 1 0 0 1 .6.34c1.77 2.66 3.52 5.33 5.28 8 .09.14.2.26.39.5v-8.83h1.41zm11.03-4.39h-3.27v-1.31h4.73v4c0 .11-.14.23-.24.32a6.81 6.81 0 0 1-5.75 1.48 4.67 4.67 0 0 1-3.94-3.4 6.25 6.25 0 0 1 1.49-6.77 4.57 4.57 0 0 1 2.22-1.12 5.83 5.83 0 0 1 4.53.79 3.45 3.45 0 0 1 1.46 2.39l-.38.08c-.91.23-.87.21-1.27-.61a2.89 2.89 0 0 0-2.49-1.51 4 4 0 0 0-4.39 3.55 5.28 5.28 0 0 0 1.23 4.46 2.89 2.89 0 0 0 2 .83 5 5 0 0 0 3.85-.84.71.71 0 0 0 .26-.44c-.02-.61-.04-1.21-.04-1.9zm-53.09 4.55a5.13 5.13 0 0 1-5.07-3.75 7 7 0 0 1 .77-5.58 5.11 5.11 0 0 1 3.66-2.12 5.43 5.43 0 0 1 4.22 1.21 4.45 4.45 0 0 1 1.6 2.66 5.23 5.23 0 0 1 .25 1.66 7.21 7.21 0 0 1-1 3.74 5.14 5.14 0 0 1-2.89 2 6.84 6.84 0 0 1-1.54.18zm.37-1.23a3.36 3.36 0 0 0 3-2.09 14.27 14.27 0 0 0 .4-1.81c.43-1.79-.62-4.68-3.07-5a3.57 3.57 0 0 0-3.86 1.82 6.35 6.35 0 0 0-.54 3.58 3.83 3.83 0 0 0 4.07 3.5zm-73.61-10.16h8V134h-6.56v3.45h6.13v1.33h-6.13v3.82h6.81v1.4h-8.25zm58.68 4.57h5.7v-4.55h1.43V144h-1.39v-5.22h-5.7v5.21H75v-11.22h1.53zm41.26-1.34h-1.26a6.73 6.73 0 0 0-1.21-1.59 3.15 3.15 0 0 0-4.07.47c-.7 1 0 1.88 1 2.18s2.33.47 3.44.85a3 3 0 0 1 2.2 2.3 3 3 0 0 1-1.28 3.18 6.08 6.08 0 0 1-4.09.64 4.59 4.59 0 0 1-1.37-.35 3.46 3.46 0 0 1-2-2.66c0-.19-.07-.38-.11-.6h.51c.6-.07 1 0 1.13.76a2.22 2.22 0 0 0 2 1.58 7.11 7.11 0 0 0 2.46-.15 1.62 1.62 0 0 0 1.37-1.65c0-.72-.85-1.49-1.75-1.73-1.16-.31-2.35-.54-3.47-1a2.67 2.67 0 0 1-1.13-4.36 4.35 4.35 0 0 1 4.3-1.15 3.46 3.46 0 0 1 2.91 2.07 10.67 10.67 0 0 1 .42 1.21zm-70.21-3.23h1.59v5.83a22 22 0 0 1-.26 2.85 3.29 3.29 0 0 1-2.89 2.64 10.79 10.79 0 0 1-2.64 0 3.2 3.2 0 0 1-2.83-2.64 8.77 8.77 0 0 1-.27-2v-6.65h1.59v7.13a5.64 5.64 0 0 0 .3 1.64 1.8 1.8 0 0 0 1.85 1.22 7.68 7.68 0 0 0 2-.1 2.38 2.38 0 0 0 1.58-2.54v-6.61zM60.74 144c-1.74 0-1.74 0-2.19-1.43l-.2-.55c-.18-.48-.23-1.19-.58-1.39s-1.11-.09-1.68-.09h-2.51a.53.53 0 0 0-.6.43c-.27.82-.58 1.62-.82 2.45a.68.68 0 0 1-.84.57 8.35 8.35 0 0 0-.93 0c.54-1.48 1.07-2.93 1.6-4.37.77-2.06 1.55-4.11 2.32-6.16.15-.41.27-.8.87-.73s1.1-.11 1.39.67c1.23 3.22 2.53 6.41 3.81 9.6.12.3.22.61.36 1zm-7.19-4.64h3.71l-1.85-5.17zm44.82-6.59h1.46v2.86c0 1.73.09 3.47.13 5.2 0 .78 1.07 2.07 2.07 2a12.49 12.49 0 0 0 2-.1 2.43 2.43 0 0 0 1.6-2.6v-7.31h1.46v7.67a3.48 3.48 0 0 1-3.4 3.59 12.2 12.2 0 0 1-2.35-.11 3.16 3.16 0 0 1-2.82-3.08c-.14-1.55-.12-3.11-.15-4.67-.01-1.12 0-2.22 0-3.45zm48.74 13.73l-1.72 2.5c-1 1.53-2.11 3.06-3.13 4.6a2 2 0 0 0-.33 1v4.91h-1.72a21.33 21.33 0 0 1 0-2.61 6.81 6.81 0 0 0-1.63-5.3c-1.19-1.5-2.16-3.18-3.23-4.78a2.41 2.41 0 0 1-.15-.38h1.78a.77.77 0 0 1 .46.35c1.25 1.91 2.48 3.84 3.7 5.74 1.16-1.79 2.38-3.61 3.52-5.46a1.17 1.17 0 0 1 1.26-.65 11.51 11.51 0 0 0 1.19.08zm-59.03 13.07h-1.75V148.1H82v-1.56h10.25v1.51h-4.17zm42.32-11.49v11.47h-1.7V148.1h-4.22v-1.55h10.24v1.53zm-61.57-5.45V144H61.9v-11.22h1.38v9.85zm53.45 16.94h-1.64v-13h1.64zm-.51-26.79v11.16h-1.52v-11.16z"/><path fill="#101010" d="M55.26 100V78.78h51.53V100zm51.37-45.82v21.21h-51.5V54.18z"/></svg>