<?xml version="1.0" encoding="utf-8"?><svg focusable="false" aria-hidden="true" data-name="REALTOR Logo" xmlns="http://www.w3.org/2000/svg" viewBox="0 0 160 160" width="160" height="160"><path fill="#101010" d="M18.27 141h3c1.94 0 3.39 0 4.51 1a4.57 4.57 0 0 1 1.48 3.53 4.05 4.05 0 0 1-4.4 4.08h-1.95l6.1 9.92h2.4l-5-8c2.89-.2 5-2.86 5-6a6.57 6.57 0 0 0-2.66-5.35A8 8 0 0 0 21.8 139h-5.52v20.57h2V141zm20.72 7.25v-7.2h8.65v-2.02H36.97v20.56h10.67v-1.99h-8.65v-7.32h8.65v-2.03h-8.65m27.24 3.04h-7.75L62.33 141l3.91 10.33zm-10.91 8.3l2.46-6.45h9.14l2.46 6.45h2.17L63.6 139h-2.43l-8 20.57zm31.36 0v-1.99h-7.23v-18.57h-2.03v20.56h9.26m10.17 0v-18.54h4.11v-2.02H90.72v2.02h4.11v18.54h2.02m8.41-10.41A10.46 10.46 0 0 0 115.7 160a10.27 10.27 0 0 0 7.84-3.47 10.46 10.46 0 0 0 2.72-7.35 10.31 10.31 0 0 0-3.15-7.55 10.15 10.15 0 0 0-7.38-3 10 10 0 0 0-7.26 3 10.54 10.54 0 0 0-3.21 7.58zm2.11 0a9 9 0 0 1 3.15-6.71 8 8 0 0 1 5.18-1.91 8.56 8.56 0 0 1 8.48 8.56c0 5.06-3.7 8.91-8.33 8.91a8.52 8.52 0 0 1-8.48-8.85zM135.1 141h3c1.94 0 3.39 0 4.51 1a4.56 4.56 0 0 1 1.47 3.53 4.05 4.05 0 0 1-4.4 4.08h-1.94l6.11 9.92h2.4l-5-8c2.89-.2 5-2.86 5-6a6.57 6.57 0 0 0-2.66-5.35 8.05 8.05 0 0 0-4.95-1.18h-5.52v20.57h2V141zM16 .71v131h131V.71zm69.63 15.71h14.6c13.47 1.37 23.24 11.89 23.12 24.91s-9.78 23.13-23.12 24.49h-14.6zm-14.16 98.77H34.55V16.27h36.92zm14.16.15V66.13l51.2 49.22zm63.49 19.88a3.58 3.58 0 0 0-2.6 1.07 3.8 3.8 0 0 0-1.11 2.65 3.67 3.67 0 0 0 1.09 2.62 3.63 3.63 0 0 0 2.62 1.1 3.78 3.78 0 0 0 2.65-1.11 3.59 3.59 0 0 0 1.07-2.61 3.7 3.7 0 0 0-3.72-3.72zm3.32 3.73a3.15 3.15 0 0 1-.94 2.31 3.38 3.38 0 0 1-2.37 1 3.33 3.33 0 0 1-3.31-3.31 3.34 3.34 0 0 1 1-2.36 3.2 3.2 0 0 1 2.31-1 3.28 3.28 0 0 1 3.32 3.33zm-3.2-2.21h-1.57V141h.64v-1.88h1l.9 1.88h.79l-1-2a1.1 1.1 0 0 0 1-1.12c0-.82-.59-1.18-1.77-1.18zm-.12.44c.84 0 1.23.22 1.23.79s-.38.75-1.23.75h-.8v-1.54z"/></svg>